:SAMPLES-PER-SECOND 24
:FULLY-SPECIFIED
:DEGREES
313
root  -0.48117 39.2214 27.6833 -5.05927 -85.1751 11.1977
RightUpLeg  -8.61973 9.74759 -6.23301
RightLeg  18.7281 -5.19021 -2.16563
RightFoot  -17.4053 0.0717628 3.5777
RightToes  -2.08645e-008 3.77894e-005 6.81332e-007
Spine  -0.372299 1.18468 4.42562
Spine1  9.16557 2.40529 -5.45047
HEad  -31.9619 40.7925 -18.4334
LeftShoulder1  7.9274 -13.6675 -39.9655
LeftArm  2.98999 18.3025 -28.4478
LeftForeArm  150.07 -73.1904 -145.001
LeftHand  -0.467319 -1.75586 7.77222
RightShoulder  4.22641 6.92345 34.6366
RightArm  17.2884 -19.3547 28.5965
RightForeArm  99.8301 80.4564 87.7024
RightHand  -0.630072 7.12103 -6.18894
LeftUpLeg  -24.761 0.624364 8.89321
LeftLeg  42.5659 5.42105 5.72516
LeftFoot  -10.2808 0.132993 -7.79194
LeftToes  1.24767e-006 1.47042e-008 1.32732e-009
314
root  -0.743837 39.0849 28.4417 169.182 -86.6804 -162.579
RightUpLeg  -10.713 14.7311 -7.98606
RightLeg  19.1017 -2.00862 -0.982157
RightFoot  -17.6817 0.166295 5.14797
RightToes  -2.08645e-008 3.77894e-005 6.81332e-007
Spine  -0.235713 1.3823 4.70163
Spine1  9.26575 2.51967 -4.97652
HEad  -29.5554 31.6025 -13.4488
LeftShoulder1  7.96271 -13.741 -39.9724
LeftArm  7.83161 16.604 -27.2708
LeftForeArm  151.223 -72.9627 -145.664
LeftHand  -0.455084 -2.14132 7.21871
RightShoulder  4.22682 6.93316 34.603
RightArm  18.4893 -16.223 29.1641
RightForeArm  93.916 80.3568 82.1463
RightHand  -0.783879 7.10454 -7.60322
LeftUpLeg  -24.2516 -9.91647 12.0442
LeftLeg  38.9992 1.98871 2.12346
LeftFoot  -14.0138 -0.113441 -8.58587
LeftToes  1.24767e-006 1.47042e-008 1.32732e-009
315
root  -1.11446 38.8441 29.4179 -176.167 -76.8213 -177.105
RightUpLeg  -13.8207 19.6826 -10.6809
RightLeg  20.2021 3.85677 1.36749
RightFoot  -17.7827 0.251686 6.60229
RightToes  -2.08645e-008 3.77894e-005 6.81332e-007
Spine  0.693858 1.35267 4.86355
Spine1  9.02128 2.51756 -4.83384
HEad  -26.9103 18.083 -7.45963
LeftShoulder1  7.8715 -13.6734 -39.641
LeftArm  12.0044 16.4871 -26.2326
LeftForeArm  153.503 -72.2726 -147.377
LeftHand  -0.410102 -2.59165 6.18472
RightShoulder  4.24723 6.94029 34.769
RightArm  19.3577 -13.0317 30.9567
RightForeArm  87.6464 80.1494 76.1032
RightHand  -0.751995 7.48055 -7.12361
LeftUpLeg  -22.7577 -22.9774 15.2763
LeftLeg  36.4331 -2.61225 -1.68093
LeftFoot  -19.6981 -0.493655 -8.38688
LeftToes  1.24767e-006 1.47042e-008 1.32732e-009
316
root  -1.58599 38.5339 30.502 -177.418 -65.159 -175.504
RightUpLeg  -18.3325 24.2712 -13.569
RightLeg  21.0888 8.93764 3.57999
RightFoot  -17.0412 0.313638 8.61129
RightToes  -2.08645e-008 3.77894e-005 6.81332e-007
Spine  1.60375 1.5051 3.0826
Spine1  8.70167 2.14442 -2.2451
HEad  -25.2092 2.65631 -1.48949
LeftShoulder1  7.89495 -13.7093 -39.6796
LeftArm  14.7648 17.9976 -25.5194
LeftForeArm  154.863 -71.7541 -148.529
LeftHand  -0.363381 -2.59963 5.49891
RightShoulder  4.26174 6.92537 34.9639
RightArm  19.2932 -11.308 33.5725
RightForeArm  85.0004 80.0266 73.1435
RightHand  -0.790881 7.12076 -7.67065
LeftUpLeg  -21.0306 -33.2 17.1815
LeftLeg  36.9047 -9.12876 -6.92935
LeftFoot  -24.5503 -0.914482 -9.15383
LeftToes  1.24767e-006 1.47042e-008 1.32732e-009
317
root  -2.10251 38.2031 31.7911 -177.542 -52.6666 -174.493
RightUpLeg  -23.8834 29.4463 -17.1726
RightLeg  20.9113 14.1894 5.72069
RightFoot  -16.2634 0.364452 10.989
RightToes  -2.08645e-008 3.77894e-005 6.81332e-007
Spine  1.9047 1.13674 1.15616
Spine1  9.34492 1.24711 0.278946
HEad  -25.4485 -12.5121 4.64143
LeftShoulder1  7.78693 -13.653 -39.2232
LeftArm  15.9561 19.3175 -26.2957
LeftForeArm  153.107 -72.6331 -146.617
LeftHand  -0.395189 -2.95788 5.72511
RightShoulder  4.36172 7.01142 35.5694
RightArm  19.1704 -10.576 35.4668
RightForeArm  88.4855 80.187 76.2967
RightHand  -0.722516 7.58765 -6.80869
LeftUpLeg  -18.6893 -38.3963 16.4543
LeftLeg  39.0279 -14.1941 -11.6718
LeftFoot  -25.8566 -0.84345 -7.82105
LeftToes  1.24767e-006 1.47042e-008 1.32732e-009
318
root  -2.63736 37.8828 33.2915 -177.28 -38.8687 -173.553
RightUpLeg  -30.9813 35.571 -21.7683
RightLeg  18.7435 20.9722 7.38904
RightFoot  -13.3046 0.138893 13.3307
RightToes  -2.08645e-008 3.77894e-005 6.81332e-007
Spine  3.35433 0.582893 -1.74954
Spine1  9.39752 0.0951362 2.91183
HEad  -26.7604 -25.4309 10.1625
LeftShoulder1  7.70627 -13.6365 -38.8165
LeftArm  15.2796 19.9117 -28.5078
LeftForeArm  148.327 -74.6126 -141.372
LeftHand  -0.481632 -2.88313 6.99785
RightShoulder  4.41311 7.05486 35.88
RightArm  19.7915 -9.35184 35.6276
RightForeArm  93.2782 80.3298 82.1026
RightHand  -0.816137 7.66939 -7.58551
LeftUpLeg  -14.2662 -35.9465 12.7799
LeftLeg  38.6123 -13.3505 -10.8442
LeftFoot  -27.0329 -0.147467 -2.30743
LeftToes  1.24767e-006 1.47042e-008 1.32732e-009
319
root  -3.17554 37.6404 34.9647 -176.48 -25.708 -172.896
RightUpLeg  -33.9639 31.7228 -18.9506
RightLeg  14.6076 26.613 5.00181
RightFoot  -6.1208 -0.864454 17.1974
RightToes  -2.08645e-008 3.77894e-005 6.81332e-007
Spine  6.08216 -0.184432 -7.55804
Spine1  8.85688 -2.17642 8.33305
HEad  -28.8643 -35.0055 14.4965
LeftShoulder1  7.91576 -13.8536 -39.4299
LeftArm  12.6643 18.5635 -29.7562
LeftForeArm  140.341 -76.5108 -134.078
LeftHand  -0.555574 -1.95687 8.98151
RightShoulder  4.31132 6.96298 35.2852
RightArm  20.0119 -6.00782 35.4015
RightForeArm  90.0105 80.2245 79.7811
RightHand  -1.0017 7.19164 -9.56456
LeftUpLeg  -11.2936 -27.515 8.87903
LeftLeg  36.2072 -7.44261 -5.4643
LeftFoot  -29.4095 0.642047 2.89447
LeftToes  1.24767e-006 1.47042e-008 1.32732e-009
320
root  -3.7618 37.626 36.8102 -174.908 -14.9999 -172.958
RightUpLeg  -34.1124 21.4827 -11.034
RightLeg  12.5858 15.728 1.15853
RightFoot  1.14618 -1.55638 14.2302
RightToes  -2.08645e-008 3.77894e-005 6.81332e-007
Spine  9.81396 -0.716789 -14.4073
Spine1  8.42191 -5.27706 15.4919
HEad  -32.5538 -42.214 18.5979
LeftShoulder1  8.21349 -14.1327 -40.3451
LeftArm  10.4786 13.5103 -27.4887
LeftForeArm  127.077 -78.4871 -121.695
LeftHand  -0.625007 -1.98676 10.0252
RightShoulder  4.25904 6.90133 35.0315
RightArm  18.8681 -2.30438 35.6571
RightForeArm  79.9685 79.7364 69.0219
RightHand  -0.868956 7.51157 -8.15435
LeftUpLeg  -12.4482 -21.2658 5.61924
LeftLeg  35.2885 -0.378121 0.0882979
LeftFoot  -29.0203 0.816078 4.12093
LeftToes  1.24767e-006 1.47042e-008 1.32732e-009
321
root  -4.53401 37.6936 38.5094 -172.644 -4.31726 -172.976
RightUpLeg  -36.8884 15.4656 -4.67625
RightLeg  17.8849 -5.36213 -2.19672
RightFoot  0.00647352 -0.243466 2.23111
RightToes  -2.08645e-008 3.77894e-005 6.81332e-007
Spine  11.6449 -0.693416 -17.7729
Spine1  9.49106 -6.92117 18.5169
HEad  -38.085 -47.7544 23.5887
LeftShoulder1  8.08867 -14.1354 -39.6676
LeftArm  9.48623 4.61038 -24.3874
LeftForeArm  100.185 -80.1249 -94.7473
LeftHand  -0.699491 -2.37542 10.6617
RightShoulder  4.277 6.8851 35.2647
RightArm  16.5329 -0.210138 36.811
RightForeArm  68.0978 78.5447 56.0872
RightHand  -0.974804 7.45608 -9.13699
LeftUpLeg  -16.0277 -17.7397 3.17287
LeftLeg  36.4564 5.84066 4.98768
LeftFoot  -26.4664 0.613272 3.42
LeftToes  1.24767e-006 1.47042e-008 1.32732e-009
322
root  -5.53466 37.9274 39.8684 -170.882 8.10361 -171.588
RightUpLeg  -40.5671 11.203 2.19553
RightLeg  32.9538 -6.05278 -4.22767
RightFoot  -6.19327 -0.0404073 0.66898
RightToes  -2.08645e-008 3.77894e-005 6.81332e-007
Spine  15.7984 0.548492 -18.1725
Spine1  6.7345 -6.25759 19.212
HEad  -41.4133 -50.8318 26.9969
LeftShoulder1  7.862 -14.019 -38.7224
LeftArm  7.38388 -3.05423 -22.7476
LeftForeArm  80.2567 -79.8233 -75.4379
LeftHand  -0.793122 -1.91008 12.7901
RightShoulder  4.37655 6.94987 35.9484
RightArm  15.846 -0.264157 36.7469
RightForeArm  62.643 77.6158 49.7479
RightHand  -1.04166 7.49009 -9.71546
LeftUpLeg  -18.0274 -9.57033 2.15033
LeftLeg  35.8715 9.57445 7.7099
LeftFoot  -24.1373 0.530008 3.43756
LeftToes  1.24767e-006 1.47042e-008 1.32732e-009
323
root  -6.58312 38.3773 40.7566 -167.68 19.9376 -167.768
RightUpLeg  -45.3446 10.5863 5.92743
RightLeg  52.7051 -1.05722 -1.62948
RightFoot  -10.1247 -0.091912 2.50291
RightToes  -2.08645e-008 3.77894e-005 6.81332e-007
Spine  19.2877 1.39874 -18.7565
Spine1  3.54753 -6.17392 21.7671
HEad  -41.5977 -50.3929 28.6964
LeftShoulder1  7.57576 -13.7712 -37.7528
LeftArm  3.31996 -8.18478 -23.8361
LeftForeArm  85.1509 -79.984 -80.3893
LeftHand  -0.878716 -1.39861 15.158
RightShoulder  4.42729 7.03937 36.072
RightArm  18.4288 0.640836 36.2774
RightForeArm  61.1555 77.197 47.156
RightHand  -1.04713 7.32417 -9.87759
LeftUpLeg  -19.1835 3.75186 3.38334
LeftLeg  32.5678 9.46701 6.8217
LeftFoot  -22.453 0.527031 4.03085
LeftToes  1.24767e-006 1.47042e-008 1.32732e-009
324
root  -7.6838 38.8928 41.2543 -161.922 27.5492 -162.383
RightUpLeg  -51.2189 7.09732 6.82604
RightLeg  71.5085 -0.68945 -3.23333
RightFoot  -14.1385 -0.0957396 -0.00305355
RightToes  -2.08645e-008 3.77894e-005 6.81332e-007
Spine  22.1984 0.797531 -18.9622
Spine1  -0.0160276 -7.68679 26.615
HEad  -40.7166 -49.2637 30.3467
LeftShoulder1  7.31226 -13.5899 -36.7113
LeftArm  2.79663 -14.3811 -26.824
LeftForeArm  99.0845 -80.2104 -92.3796
LeftHand  -0.888996 -1.24215 15.6801
RightShoulder  4.36096 7.00298 35.5956
RightArm  21.9812 1.12453 35.2796
RightForeArm  65.7305 77.8339 50.0311
RightHand  -0.917723 7.79869 -8.41607
LeftUpLeg  -21.4799 12.5654 5.33928
LeftLeg  28.9626 9.15133 5.78559
LeftFoot  -20.2184 0.461925 4.38382
LeftToes  1.24767e-006 1.47042e-008 1.32732e-009
325
root  -8.82096 39.4116 41.3177 -154.146 34.7275 -154.454
RightUpLeg  -56.6351 3.53613 4.68909
RightLeg  86.8614 0.0992694 -5.78229
RightFoot  -17.2101 -0.1446 -0.583522
RightToes  -2.08645e-008 3.77894e-005 6.81332e-007
Spine  23.7687 0.491126 -17.3707
Spine1  -2.18744 -8.18258 30.5939
HEad  -40.4365 -49.0416 31.8269
LeftShoulder1  6.94083 -13.4389 -34.9393
LeftArm  7.67673 -23.5661 -31.4417
LeftForeArm  103.175 -80.2862 -94.4348
LeftHand  -0.907568 -1.44211 15.5481
RightShoulder  4.08298 6.74958 33.9304
RightArm  25.2515 1.58681 34.2899
RightForeArm  74.0613 78.9394 57.1367
RightHand  -0.966706 8.04897 -8.68859
LeftUpLeg  -22.6883 18.8757 8.011
LeftLeg  25.1512 12.076 6.43762
LeftFoot  -18.1844 0.366355 4.29513
LeftToes  1.24767e-006 1.47042e-008 1.32732e-009
326
root  -9.86943 39.8314 40.906 -143.74 42.484 -142.541
RightUpLeg  -60.726 1.25667 -1.22949
RightLeg  98.7426 0.87217 -3.03784
RightFoot  -19.3259 -0.164722 -0.464008
RightToes  -2.08645e-008 3.77894e-005 6.81332e-007
Spine  25.2066 0.550417 -13.8836
Spine1  -3.56945 -7.53156 32.6102
HEad  -39.2623 -48.7884 31.1355
LeftShoulder1  6.32456 -13.0602 -32.1709
LeftArm  13.6201 -30.5188 -36.9159
LeftForeArm  108.589 -80.2985 -98.2248
LeftHand  -0.949196 -1.9742 15.1212
RightShoulder  3.75473 6.51211 31.5995
RightArm  30.1416 3.96121 33.8204
RightForeArm  82.3081 79.7472 64.755
RightHand  -1.04344 7.99838 -9.38269
LeftUpLeg  -21.4628 26.723 11.6557
LeftLeg  21.1672 15.997 7.16315
LeftFoot  -16.713 0.318916 4.63914
LeftToes  1.24767e-006 1.47042e-008 1.32732e-009
327
root  -10.6511 40.2666 40.0455 -129.546 48.0592 -127.552
RightUpLeg  -64.1231 -2.24737 -10.0482
RightLeg  104.212 1.35139 -3.36782
RightFoot  -21.9289 -0.192329 -0.479485
RightToes  -2.08645e-008 3.77894e-005 6.81332e-007
Spine  25.8452 -0.269156 -8.65673
Spine1  -5.06259 -6.9085 32.9806
HEad  -37.0557 -48.6509 28.6417
LeftShoulder1  5.79692 -12.6665 -29.8245
LeftArm  17.5655 -31.5729 -41.0355
LeftForeArm  126.008 -79.6632 -113.502
LeftHand  -0.879898 -2.52942 13.0905
RightShoulder  3.43533 6.30162 29.1012
RightArm  35.9414 6.96466 34.0294
RightForeArm  91.6833 80.3504 72.6427
RightHand  -0.847583 8.11771 -7.62981
LeftUpLeg  -17.8704 30.218 16.8047
LeftLeg  15.9879 23.0545 6.64781
LeftFoot  -14.0197 0.22367 5.98843
LeftToes  1.24767e-006 1.47042e-008 1.32732e-009
